<svg xmlns="http://www.w3.org/2000/svg" width="1200" height="760" viewBox="0 0 1200 760" role="img" aria-labelledby="title desc">
  <title id="title">c¤Ì®&4G AoA 5‚õş</title>
  <desc id="desc">2 x 2 ¹b®&4G5Ï*4Gw	$*c¤ˆ5¹(ø»5CøMî0¡ AoA</desc>
  <defs>
    <marker id="arrow" markerWidth="10" markerHeight="10" refX="8" refY="3" orient="auto" markerUnits="strokeWidth">
      <path d="M0,0 L0,6 L9,3 z" fill="#1b4d89"/>
    </marker>
    <marker id="arrow-red" markerWidth="10" markerHeight="10" refX="8" refY="3" orient="auto" markerUnits="strokeWidth">
      <path d="M0,0 L0,6 L9,3 z" fill="#b5312d"/>
    </marker>
    <filter id="shadow" x="-15%" y="-15%" width="130%" height="130%">
      <feDropShadow dx="0" dy="4" stdDeviation="6" flood-color="#000000" flood-opacity="0.18"/>
    </filter>
    <pattern id="viaPattern" width="16" height="16" patternUnits="userSpaceOnUse">
      <circle cx="8" cy="8" r="2.3" fill="#2a7a58" opacity="0.75"/>
    </pattern>
  </defs>

  <rect width="1200" height="760" fill="#f5f8fb"/>
  <text x="60" y="58" font-family="Arial, 'Microsoft YaHei', sans-serif" font-size="30" font-weight="700" fill="#1e293b">c¤Ì®&4G5 - AoA šM:‹</text>
  <text x="60" y="92" font-family="Arial, 'Microsoft YaHei', sans-serif" font-size="16" fill="#475569">2.45 GHz / 2 x 2 5 / X  Y c¤ˆ5 / ø»5CøMîKÒ</text>

  <g transform="translate(80,135)" filter="url(#shadow)">
    <rect x="0" y="0" width="620" height="520" rx="18" fill="#0f7a55"/>
    <rect x="18" y="18" width="584" height="484" rx="10" fill="#16845f"/>
    <rect x="38" y="38" width="544" height="444" rx="8" fill="url(#viaPattern)" opacity="0.24"/>
    <text x="310" y="490" text-anchor="middle" font-family="Arial, 'Microsoft YaHei', sans-serif" font-size="15" fill="#e7fff6">PCB ground plane / bottom solid GND</text>

    <g id="patches" font-family="Arial, 'Microsoft YaHei', sans-serif">
      <g transform="translate(120,95)">
        <rect x="0" y="0" width="135" height="135" rx="4" fill="#d8a62f" stroke="#7a4f00" stroke-width="3"/>
        <circle cx="42" cy="68" r="8" fill="#1b4d89"/>
        <circle cx="68" cy="42" r="8" fill="#b5312d"/>
        <line x1="42" y1="68" x2="-38" y2="68" stroke="#1b4d89" stroke-width="5"/>
        <line x1="68" y1="42" x2="68" y2="-42" stroke="#b5312d" stroke-width="5"/>
        <text x="67.5" y="78" text-anchor="middle" font-size="20" font-weight="700" fill="#3b2800">P1</text>
        <text x="-50" y="63" text-anchor="end" font-size="13" fill="#dbeafe">X-pol</text>
        <text x="75" y="-50" text-anchor="middle" font-size="13" fill="#fee2e2">Y-pol</text>
      </g>
      <g transform="translate(365,95)">
        <rect x="0" y="0" width="135" height="135" rx="4" fill="#d8a62f" stroke="#7a4f00" stroke-width="3"/>
        <circle cx="42" cy="68" r="8" fill="#1b4d89"/>
        <circle cx="68" cy="42" r="8" fill="#b5312d"/>
        <line x1="42" y1="68" x2="-38" y2="68" stroke="#1b4d89" stroke-width="5"/>
        <line x1="68" y1="42" x2="68" y2="-42" stroke="#b5312d" stroke-width="5"/>
        <text x="67.5" y="78" text-anchor="middle" font-size="20" font-weight="700" fill="#3b2800">P2</text>
      </g>
      <g transform="translate(120,310)">
        <rect x="0" y="0" width="135" height="135" rx="4" fill="#d8a62f" stroke="#7a4f00" stroke-width="3"/>
        <circle cx="42" cy="68" r="8" fill="#1b4d89"/>
        <circle cx="68" cy="42" r="8" fill="#b5312d"/>
        <line x1="42" y1="68" x2="-38" y2="68" stroke="#1b4d89" stroke-width="5"/>
        <line x1="68" y1="42" x2="68" y2="-42" stroke="#b5312d" stroke-width="5"/>
        <text x="67.5" y="78" text-anchor="middle" font-size="20" font-weight="700" fill="#3b2800">P3</text>
      </g>
      <g transform="translate(365,310)">
        <rect x="0" y="0" width="135" height="135" rx="4" fill="#d8a62f" stroke="#7a4f00" stroke-width="3"/>
        <circle cx="42" cy="68" r="8" fill="#1b4d89"/>
        <circle cx="68" cy="42" r="8" fill="#b5312d"/>
        <line x1="42" y1="68" x2="-38" y2="68" stroke="#1b4d89" stroke-width="5"/>
        <line x1="68" y1="42" x2="68" y2="-42" stroke="#b5312d" stroke-width="5"/>
        <text x="67.5" y="78" text-anchor="middle" font-size="20" font-weight="700" fill="#3b2800">P4</text>
      </g>
    </g>

    <line x1="187.5" y1="275" x2="432.5" y2="275" stroke="#0f172a" stroke-width="2" marker-end="url(#arrow)"/>
    <line x1="555" y1="162.5" x2="555" y2="377.5" stroke="#0f172a" stroke-width="2" marker-end="url(#arrow)"/>
    <text x="310" y="260" text-anchor="middle" font-family="Arial, 'Microsoft YaHei', sans-serif" font-size="16" fill="#0f172a">d = lambda0 / 2</text>
    <text x="566" y="270" font-family="Arial, 'Microsoft YaHei', sans-serif" font-size="16" fill="#0f172a" transform="rotate(90 566 270)">d = lambda0 / 2</text>
  </g>

  <g transform="translate(785,125)" font-family="Arial, 'Microsoft YaHei', sans-serif">
    <rect x="0" y="0" width="340" height="170" rx="16" fill="#ffffff" stroke="#cbd5e1"/>
    <text x="24" y="38" font-size="20" font-weight="700" fill="#1e293b">eâøMî</text>
    <path d="M38 128 C94 84, 155 62, 230 52" fill="none" stroke="#64748b" stroke-width="3" stroke-dasharray="9 8"/>
    <path d="M48 154 C112 106, 181 78, 278 62" fill="none" stroke="#64748b" stroke-width="3" stroke-dasharray="9 8"/>
    <line x1="245" y1="32" x2="92" y2="124" stroke="#b5312d" stroke-width="4" marker-end="url(#arrow-red)"/>
    <text x="178" y="47" font-size="16" fill="#b5312d">incoming wave</text>
    <text x="24" y="76" font-size="15" fill="#475569">Delta phi = 2*pi*d/lambda*sin(theta)</text>
    <text x="24" y="103" font-size="15" fill="#475569">øMîŠ'0¡Ò¦ŠO»Õ¿</text>
  </g>

  <g transform="translate(785,330)" font-family="Arial, 'Microsoft YaHei', sans-serif">
    <rect x="0" y="0" width="340" height="250" rx="16" fill="#ffffff" stroke="#cbd5e1"/>
    <text x="24" y="40" font-size="20" font-weight="700" fill="#1e293b">¥6şïú®</text>
    <g fill="#e0f2fe" stroke="#1b4d89" stroke-width="2">
      <rect x="30" y="72" width="84" height="42" rx="8"/>
      <rect x="128" y="72" width="84" height="42" rx="8"/>
      <rect x="226" y="72" width="84" height="42" rx="8"/>
    </g>
    <text x="72" y="98" text-anchor="middle" font-size="14" fill="#1b4d89">Patch</text>
    <text x="170" y="98" text-anchor="middle" font-size="14" fill="#1b4d89">LNA/RF</text>
    <text x="268" y="98" text-anchor="middle" font-size="14" fill="#1b4d89">ADC/IQ</text>
    <line x1="114" y1="93" x2="128" y2="93" stroke="#334155" stroke-width="2" marker-end="url(#arrow)"/>
    <line x1="212" y1="93" x2="226" y2="93" stroke="#334155" stroke-width="2" marker-end="url(#arrow)"/>
    <text x="28" y="150" font-size="15" fill="#475569">1. ÛSÅ{eÇ7òåbøM</text>
    <text x="28" y="178" font-size="15" fill="#475569">2. ˆ¿IiYïî(šé5e</text>
    <text x="28" y="206" font-size="15" fill="#475569">3. MUSIC/ESPRIT øMîÕGï(</text>
  </g>

  <g transform="translate(800,635)" font-family="Arial, 'Microsoft YaHei', sans-serif" font-size="14">
    <rect x="0" y="0" width="18" height="18" fill="#1b4d89"/>
    <text x="28" y="15" fill="#334155">X-pol feed</text>
    <rect x="130" y="0" width="18" height="18" fill="#b5312d"/>
    <text x="158" y="15" fill="#334155">Y-pol feed</text>
    <rect x="260" y="0" width="18" height="18" fill="#d8a62f" stroke="#7a4f00"/>
    <text x="288" y="15" fill="#334155">microstrip patch</text>
  </g>
</svg>
